# File created by Blade
# Date/Time:  Thu Jan 22 15:50:06 2015
#---------------------------------------------------------
:version 1.10
:name HOM
:units
  mass 1.0
  length 1.000000
  angle deg
:documentation
     Acclaim Skeleton File
:root
   axis xyz
   order TX TY TZ RX RY RZ
   position 0.000000 0.000000 0.000000
   orientation 0 0 0
:bonedata
   begin
      id 1
      name RightUpLeg_dum
      direction -1.000000 0.000000 0.000000
      length 3.766986
      axis 0.0 0.0 0.0 xyz
   end
   begin
      id 2
      name LeftUpLeg_dum
      direction 1.000000 0.000000 0.000000
      length 3.766986
      axis 0.0 0.0 0.0 xyz
   end
   begin
      id 3
      name Spine_dum
      direction 0.000000 1.000000 0.000000
      length 7.779697
      axis 0.0 0.0 0.0 xyz
   end
   begin
      id 4
      name RightUpLeg
      direction 0.000000 -1.000000 0.000000
      length 18.017682
      axis 0.0 0.0 0.0 xyz
      dof rx ry rz
   end
   begin
      id 5
      name RightLeg
      direction 0.000000 -1.000000 0.000000
      length 16.881075
      axis 0.0 0.0 0.0 xyz
      dof rx ry rz
   end
   begin
      id 6
      name RightFoot
      direction 0.000000 -0.258819 0.965926
      length 5.770812
      axis 15.0 0.0 0.0 xyz
      dof rx ry rz
   end
   begin
      id 7
      name RightToeBase
      direction 0.000000 0.000000 1.000000
      length 2.952750
      axis 0.0 0.0 0.0 xyz
      dof rx ry rz
   end
   begin
      id 8
      name LeftUpLeg
      direction 0.000000 -1.000000 0.000000
      length 18.017682
      axis 0.0 0.0 0.0 xyz
      dof rx ry rz
   end
   begin
      id 9
      name LeftLeg
      direction 0.000000 -1.000000 0.000000
      length 16.881075
      axis 0.0 0.0 0.0 xyz
      dof rx ry rz
   end
   begin
      id 10
      name LeftFoot
      direction 0.000000 -0.258819 0.965926
      length 5.770812
      axis 15.0 0.0 0.0 xyz
      dof rx ry rz
   end
   begin
      id 11
      name LeftToeBase
      direction 0.000000 0.000000 1.000000
      length 2.952750
      axis 0.0 0.0 0.0 xyz
      dof rx ry rz
   end
   begin
      id 12
      name Spine
      direction 0.000000 1.000000 0.000000
      length 0.000000
      axis 0.0 0.0 0.0 xyz
      dof rx ry rz
   end
   begin
      id 13
      name Spine_dum1
      direction 0.000000 1.000000 0.000000
      length 10.941760
      axis 0.0 0.0 0.0 xyz
   end
   begin
      id 14
      name Spine_dum2
      direction 0.000000 1.000000 0.000000
      length 10.941760
      axis 0.0 0.0 0.0 xyz
   end
   begin
      id 15
      name Spine_dum3
      direction 0.000000 1.000000 0.000000
      length 16.646042
      axis 0.0 0.0 0.0 xyz
   end
   begin
      id 16
      name RightShoulder
      direction -1.000000 0.000000 0.000000
      length 7.708937
      axis 0.0 0.0 90.0 xyz
      dof rx ry rz
   end
   begin
      id 17
      name RightArm
      direction -1.000000 0.000000 0.000000
      length 11.521345
      axis 0.0 0.0 90.0 xyz
      dof rx ry rz
   end
   begin
      id 18
      name RightForeArm
      direction -1.000000 0.000000 0.000000
      length 10.175898
      axis 0.0 0.0 90.0 xyz
      dof ry rz rx
   end
   begin
      id 19
      name RightHand
      direction -1.000000 0.000000 0.000000
      length 0.000000
      axis 0.0 0.0 90.0 xyz
      dof rx ry rz
   end
   begin
      id 20
      name RightHand_dum1
      direction -1.000000 0.000000 0.000000
      length 3.937000
      axis 0.0 0.0 90.0 xyz
   end
   begin
      id 21
      name RightHand_dum2
      direction 0.000000 0.000000 0.000000
      length 0.000000
      axis 0.0 0.0 90.0 xyz
   end
   begin
      id 22
      name RightHandThumb1
      direction 0.000000 0.000000 1.000000
      length 3.937000
      axis 0.0 0.0 90.0 xyz
      dof rx rz ry
   end
   begin
      id 23
      name LeftShoulder
      direction 1.000000 0.000000 0.000000
      length 7.708937
      axis 0.0 0.0 -90.0 xyz
      dof rx ry rz
   end
   begin
      id 24
      name LeftArm
      direction 1.000000 0.000000 0.000000
      length 11.521345
      axis 0.0 0.0 -90.0 xyz
      dof rx ry rz
   end
   begin
      id 25
      name LeftForeArm
      direction 1.000000 0.000000 0.000000
      length 10.175898
      axis 0.0 0.0 -90.0 xyz
      dof ry rz rx
   end
   begin
      id 26
      name LeftHand
      direction 1.000000 0.000000 0.000000
      length 0.000000
      axis 0.0 0.0 -90.0 xyz
      dof rx ry rz
   end
   begin
      id 27
      name LeftHand_dum1
      direction 1.000000 0.000000 0.000000
      length 3.937000
      axis 0.0 0.0 -90.0 xyz
   end
   begin
      id 28
      name LeftHand_dum2
      direction 0.000000 0.000000 0.000000
      length 0.000000
      axis 0.0 0.0 -90.0 xyz
   end
   begin
      id 29
      name LeftHandThumb1
      direction 0.000000 0.000000 1.000000
      length 3.937000
      axis 0.0 0.0 -90.0 xyz
      dof rx rz ry
   end
   begin
      id 30
      name Head
      direction 0.000000 1.000000 0.000000
      length 4.527550
      axis 0.0 0.0 0.0 xyz
      dof rx ry rz
   end
:hierarchy
   begin
      root RightUpLeg_dum LeftUpLeg_dum Spine_dum
      RightUpLeg_dum RightUpLeg
      LeftUpLeg_dum LeftUpLeg
      Spine_dum Spine
      RightUpLeg RightLeg
      RightLeg RightFoot
      RightFoot RightToeBase
      LeftUpLeg LeftLeg
      LeftLeg LeftFoot
      LeftFoot LeftToeBase
      Spine Spine_dum1 Spine_dum2 Spine_dum3
      Spine_dum1 RightShoulder
      Spine_dum2 LeftShoulder
      Spine_dum3 Head
      RightShoulder RightArm
      RightArm RightForeArm
      RightForeArm RightHand
      RightHand RightHand_dum1 RightHand_dum2
      RightHand_dum2 RightHandThumb1
      LeftShoulder LeftArm
      LeftArm LeftForeArm
      LeftForeArm LeftHand
      LeftHand LeftHand_dum1 LeftHand_dum2
      LeftHand_dum2 LeftHandThumb1
   end

# File created by Blade
# Date/Time:  Thu Jan 22 15:49:58 2015
# Frame Rate: 120.000 fps
#------------------------------------------------------
:FULLY-SPECIFIED
:DEGREES
480
root 3.190291 37.142486 5.189689 -1.220726 -1.133838 2.693668
RightUpLeg 10.320741 -7.111620 -5.542124
RightLeg -5.652551 -0.000000 0.000000
RightFoot -11.398620 -13.573717 16.893639
RightToeBase 13.415453 -0.000000 -0.000000
LeftUpLeg 8.372256 4.450918 1.547825
LeftLeg -3.253768 -0.000000 0.000000
LeftFoot -6.367418 6.803544 -17.297122
LeftToeBase 8.568634 -0.000000 -0.000000
Spine -1.270762 -6.053141 -4.837537
RightShoulder -7.478614 12.192620 -45.529765
RightArm 45.995660 69.764460 48.672348
RightForeArm 78.969497 -0.000000 124.310941
RightHand 18.357273 -0.000000 -7.491834
RightHandThumb1 -24.326973 -0.000000 -32.862282
LeftShoulder -29.651144 6.670811 37.407720
LeftArm 178.158918 -39.559732 -112.314079
LeftForeArm -24.947190 -0.000000 145.307999
LeftHand -6.381795 -0.000000 -8.181405
LeftHandThumb1 -26.253704 0.000000 33.147579
Head 18.117109 10.661515 0.923143
481
root 3.194391 37.141371 5.194754 -1.209153 -1.114878 2.705374
RightUpLeg 10.315923 -7.165124 -5.563215
RightLeg -5.644195 -0.000000 0.000000
RightFoot -11.418339 -13.546990 16.887720
RightToeBase 13.453203 -0.000000 -0.000000
LeftUpLeg 8.375477 4.407125 1.525621
LeftLeg -3.273740 -0.000000 0.000000
LeftFoot -6.365057 6.833657 -17.276693
LeftToeBase 8.558316 -0.000000 -0.000000
Spine -1.284600 -6.090130 -4.833219
RightShoulder -7.472351 12.198618 -45.542133
RightArm 45.945523 69.743267 48.625963
RightForeArm 79.005539 -0.000000 124.303642
RightHand 18.375717 -0.000000 -7.303960
RightHandThumb1 -24.326973 -0.000000 -32.862282
LeftShoulder -29.644429 6.692156 37.401362
LeftArm 178.163066 -39.576019 -112.330741
LeftForeArm -24.943145 -0.000000 145.296080
LeftHand -6.397987 -0.000000 -8.144041
LeftHandThumb1 -26.253704 0.000000 33.147579
Head 18.132478 10.680154 0.901563
482
root 3.194325 37.140779 5.198852 -1.214911 -1.111942 2.709450
RightUpLeg 10.321269 -7.201984 -5.565250
RightLeg -5.634531 -0.000000 0.000000
RightFoot -11.422976 -13.566852 16.867175
RightToeBase 13.430182 -0.000000 -0.000000
LeftUpLeg 8.391680 4.406952 1.524973
LeftLeg -3.281365 -0.000000 0.000000
LeftFoot -6.368987 6.815694 -17.295570
LeftToeBase 8.591574 -0.000000 -0.000000
Spine -1.266062 -6.109111 -4.836993
RightShoulder -7.483150 12.188854 -45.534757
RightArm 46.020988 69.729988 48.692444
RightForeArm 79.005771 0.000000 124.296547
RightHand 18.377592 -0.000000 -7.294810
RightHandThumb1 -24.326973 -0.000000 -32.862282
LeftShoulder -29.632766 6.699238 37.402977
LeftArm 178.217610 -39.591755 -112.392414
LeftForeArm -24.898573 -0.000000 145.269321
LeftHand -6.314587 0.000000 -8.208021
LeftHandThumb1 -26.253704 0.000000 33.147579
Head 18.123214 10.703034 0.898558
483
root 3.196112 37.139545 5.203245 -1.208791 -1.104986 2.712586
RightUpLeg 10.318625 -7.237439 -5.568113
RightLeg -5.629962 -0.000000 0.000000
RightFoot -11.439982 -13.572925 16.874006
RightToeBase 13.445854 -0.000000 -0.000000
LeftUpLeg 8.400026 4.394895 1.517120
LeftLeg -3.298933 -0.000000 0.000000
LeftFoot -6.369248 6.832086 -17.275537
LeftToeBase 8.524246 -0.000000 -0.000000
Spine -1.265957 -6.124484 -4.830502
RightShoulder -7.491285 12.175120 -45.542901
RightArm 46.051341 69.720507 48.725438
RightForeArm 79.004589 -0.000000 124.291432
RightHand 18.398202 -0.000000 -7.302411
RightHandThumb1 -24.326973 -0.000000 -32.862282
LeftShoulder -29.612566 6.715007 37.400619
LeftArm 178.249476 -39.590263 -112.426347
LeftForeArm -24.908417 0.000000 145.255978
LeftHand -6.272317 0.000000 -8.204897
LeftHandThumb1 -26.253704 0.000000 33.147579
Head 18.120816 10.730286 0.890746
